<svg xmlns="http://www.w3.org/2000/svg" version="1.1" xmlns:xlink="http://www.w3.org/1999/xlink" xmlns:svgjs="http://svgjs.dev/svgjs" width="32" height="32"><svg fill="#000" stroke-width="0" viewBox="0 0 24 24" height="32" width="32" xmlns="http://www.w3.org/2000/svg"><path d="M12 1 3 5v6c0 5.5 3.8 10.7 9 12 5.2-1.3 9-6.5 9-12V5zm0 1.5 7.5 3.3V11c0 5.5-3.8 9.2-7.5 10.5-3.7-1.3-7.5-5-7.5-10.5V5.8zm2.1 13L12 13.4l-2.1 2.1a1 1 45 0 1-1.4-1.4l2.1-2.1-2.1-2.1a1 1 45 0 1 1.4-1.4l2.1 2.1 2.1-2.1a1 1 45 0 1 1.4 1.4L13.4 12l2.1 2.1a1 1 45 0 1-1.4 1.4"></path></svg><style>@media (prefers-color-scheme: light) { :root { filter: none; } }
@media (prefers-color-scheme: dark) { :root { filter: invert(100%); } }
</style></svg>