<svg fill="#fff" stroke-width="0" viewBox="0 0 24 24" height="32" width="32" xmlns="http://www.w3.org/2000/svg"><path d="M12 1 3 5v6c0 5.55 3.84 10.74 9 12 5.16-1.26 9-6.45 9-12V5zm0 1.5 7.5 3.33V11c0 5.55-3.84 9.24-7.5 10.5zM10 9H8.5v1.5a.5.5 0 0 1-1 0V9H6a.5.5 0 0 1 0-1h1.5V6.5a.5.5 0 0 1 1 0V8H10a.5.5 0 0 1 0 1m.1 6.9a.5.5 0 0 1-.71.71l-1.4-1.4-1.4 1.4a.5.5 0 0 1-.71-.71l1.4-1.4-1.4-1.4a.5.5 0 0 1 .71-.71l1.4 1.4 1.4-1.4a.5.5 0 0 1 .71.71l-1.4 1.4ZM14 9a.5.5 0 0 1 0-1h4a.5.5 0 0 1 0 1Zm0 6a.5.5 0 0 1 0-1h4a.5.5 0 0 1 0 1Zm2 .5a.5.5 0 0 1 0 1 .5.5 0 0 1 0-1m0-3a.5.5 0 0 1 0 1 .5.5 0 0 1 0-1"/></svg>